<svg version="1.2" xmlns="http://www.w3.org/2000/svg" viewBox="0 0 80 80" width="80" height="80">
	<title>soundcloud-2-svg</title>
	<defs>
		<linearGradient id="g1" x2="1" gradientUnits="userSpaceOnUse" gradientTransform="matrix(0,38.734,-69.831,0,40.077,21.128)">
			<stop offset="0" stop-color="#ff8800"/>
			<stop offset="1" stop-color="#ff3300"/>
		</linearGradient>
	</defs>
	<style>
		.s0 { fill: url(#g1) } 
	</style>
	<path fill-rule="evenodd" class="s0" d="m3.4 53.4q0 1.3 0.9 2 1 0.7 2.2 0.5 1-0.2 1.4-0.7 0.5-0.6 0.5-1.8v-9.9q0-1.1-0.8-1.8-0.7-0.7-1.8-0.7-1 0-1.7 0.7-0.7 0.7-0.7 1.8zm7.8 4.2q0 1 0.7 1.5 0.7 0.5 1.8 0.5 1.1 0 1.8-0.5 0.7-0.5 0.7-1.5v-23q0-1.1-0.7-1.8-0.8-0.7-1.8-0.7-1 0-1.8 0.7-0.7 0.7-0.7 1.8zm7.8 1.1q0 0.9 0.7 1.4 0.7 0.5 1.9 0.5 1.1 0 1.8-0.5 0.7-0.5 0.7-1.4v-21.1q0-1-0.8-1.8-0.7-0.7-1.7-0.7-1.1 0-1.8 0.7-0.8 0.8-0.8 1.8c0 0 0 21.1 0 21.1zm7.9 0.1q0 1.8 2.5 1.8 2.5 0 2.5-1.8v-34.1q0-2.9-1.7-3.3-1.2-0.3-2.3 0.7-1 0.9-1 2.6c0 0 0 34.1 0 34.1zm8.1 1.4q0.1 0.3 0.4 0.4h29.7q4.8 0 8.1-3.3 3.4-3.4 3.4-8.2 0-4.7-3.4-8.1-3.3-3.4-8.1-3.4-2.4 0-4.5 0.9-0.4-5.1-3.2-9.4-2.8-4.2-7.3-6.7-4.5-2.4-9.7-2.4-2.2 0-4.5 0.5-1.1 0.4-1.1 2.1v37.1q0 0.2 0.2 0.5z"/>
</svg>